<svg xmlns="http://www.w3.org/2000/svg" viewBox="0 0 760 208" role="img" aria-labelledby="title desc">
  <title id="title">Language matrix for rnvale</title>
  <desc id="desc">Primary language distribution refreshed by GitHub Actions.</desc>
  <defs><linearGradient id="bg" x1="0" y1="0" x2="1" y2="1"><stop stop-color="#0B0E14"/><stop offset="1" stop-color="#16141A"/></linearGradient><linearGradient id="bar" x1="0" x2="1"><stop stop-color="#C0392B"/><stop offset="1" stop-color="#E7B84B"/></linearGradient></defs>
  <rect x="2" y="2" width="756" height="204" rx="12" fill="url(#bg)" stroke="#C0392B" stroke-width="3"/>
  <text x="28" y="31" fill="#E7B84B" font-family="JetBrains Mono,Consolas,monospace" font-size="14" letter-spacing="2">LANGUAGE // MATRIX</text>
  <text x="732" y="31" text-anchor="end" fill="#9CA3AF" font-family="JetBrains Mono,Consolas,monospace" font-size="10">PRIMARY LANGUAGES</text>
  <path d="M24 48H736" stroke="#E7B84B" stroke-opacity="0.22"/>
  <g font-family="JetBrains Mono,Consolas,monospace" font-size="12">
    <text x="30" y="78" fill="#F3F5F7">Vue</text><text x="730" y="78" text-anchor="end" fill="#E7B84B">42%</text><rect x="108" y="68" width="560" height="12" rx="6" fill="#27212A"/><rect x="108" y="68" width="235" height="12" rx="6" fill="url(#bar)"/>
    <text x="30" y="111" fill="#F3F5F7">TypeScript</text><text x="730" y="111" text-anchor="end" fill="#E7B84B">33%</text><rect x="108" y="101" width="560" height="12" rx="6" fill="#27212A"/><rect x="108" y="101" width="185" height="12" rx="6" fill="url(#bar)"/>
    <text x="30" y="144" fill="#F3F5F7">Python</text><text x="730" y="144" text-anchor="end" fill="#E7B84B">17%</text><rect x="108" y="134" width="560" height="12" rx="6" fill="#27212A"/><rect x="108" y="134" width="95" height="12" rx="6" fill="url(#bar)"/>
    <text x="30" y="177" fill="#F3F5F7">Other</text><text x="730" y="177" text-anchor="end" fill="#E7B84B">8%</text><rect x="108" y="167" width="560" height="12" rx="6" fill="#27212A"/><rect x="108" y="167" width="45" height="12" rx="6" fill="url(#bar)"/>
  </g>
</svg>
